<svg height="512pt" viewBox="0 0 512 512" width="512pt" xmlns="http://www.w3.org/2000/svg" xmlns:xlink="http://www.w3.org/1999/xlink"><linearGradient id="a" gradientUnits="userSpaceOnUse" x1="0" x2="512" y1="256" y2="256"><stop offset="0" stop-color="#00f1ff"/><stop offset=".231" stop-color="#00d8ff"/><stop offset=".5138" stop-color="#00c0ff"/><stop offset=".7773" stop-color="#00b2ff"/><stop offset="1" stop-color="#00adff"/></linearGradient><path d="m512 256c0 141.386719-114.613281 256-256 256s-256-114.613281-256-256 114.613281-256 256-256 256 114.613281 256 256zm0 0" fill="url(#a)"/><g fill="#fff"><path d="m392.132812 84.03125h-272.265624c-23.589844 0-42.78125 19.191406-42.78125 42.78125v230.59375c0 31.25 25.425781 56.671875 56.671874 56.671875h156.96875c8.285157 0 15-6.714844 15-15 0-8.28125-6.714843-15-15-15h-156.96875c-14.707031 0-26.671874-11.964844-26.671874-26.671875v-187.117188h297.828124v126.691407c0 8.28125 6.714844 15 15 15 8.285157 0 15-6.71875 15-15v-170.167969c0-23.589844-19.191406-42.78125-42.78125-42.78125zm-56.261718 30c7.050781 0 12.785156 5.734375 12.785156 12.78125 0 7.050781-5.734375 12.785156-12.785156 12.785156-7.046875 0-12.78125-5.734375-12.78125-12.785156 0-7.046875 5.734375-12.78125 12.78125-12.78125zm68.347656 12.78125c0 7.050781-5.734375 12.785156-12.78125 12.785156s-12.78125-5.734375-12.78125-12.785156c0-7.046875 5.734375-12.78125 12.78125-12.78125s12.78125 5.734375 12.78125 12.78125zm-297.132812 0c0-7.046875 5.734374-12.78125 12.78125-12.78125h175.175781c-1.265625 4.039062-1.953125 8.332031-1.953125 12.78125 0 4.710938.777344 9.238281 2.1875 13.476562h-188.191406zm0 0"/><path d="m346.300781 278.683594c-1.746093-1.75-3.894531-3.039063-6.261719-3.757813l-54.675781-16.609375c-5.234375-1.589844-10.917969-.203125-14.835937 3.617188-3.914063 3.820312-5.4375 9.46875-3.980469 14.738281l15.53125 56.066406c.691406 2.492188 2.015625 4.765625 3.839844 6.59375l75.964843 76.105469c8.078126 8.082031 18.820313 12.53125 30.25 12.53125 11.425782 0 22.171876-4.449219 30.25-12.53125 8.082032-8.082031 12.53125-18.824219 12.53125-30.25 0-11.429688-4.449218-22.171875-12.519531-30.242188zm-43.5625 16.265625 24.984375 7.585937 50.367188 50.480469-18.082032 18.078125-50.070312-50.164062zm98.433594 99.277343c-4.984375 4.980469-13.09375 4.984376-18.066406.007813l-1.90625-1.90625 18.078125-18.078125 1.894531 1.898438c4.980469 4.984374 4.980469 13.09375 0 18.078124zm0 0"/></g></svg>