<?xml version="1.0" ?><!DOCTYPE svg  PUBLIC '-//W3C//DTD SVG 1.1//EN'  'http://www.w3.org/Graphics/SVG/1.1/DTD/svg11.dtd'><svg enable-background="new 0 0 128 128" height="128px" id="Layer_1" version="1.1" viewBox="0 0 128 128" width="128px" xml:space="preserve" xmlns="http://www.w3.org/2000/svg" xmlns:xlink="http://www.w3.org/1999/xlink"><path d="M109.85,63C109.314,38.166,88.96,18.125,64,18.125c-0.199,0-0.396,0.013-0.594,0.015  c-0.085-0.002-0.168-0.015-0.253-0.015c-0.21,0-0.417,0.021-0.625,0.037C38.246,18.933,18.675,38.657,18.15,63h-0.025v2h0.025  c0.525,24.343,20.095,44.066,44.378,44.838c0.208,0.016,0.415,0.037,0.625,0.037c0.085,0,0.168-0.013,0.253-0.016  c0.198,0.003,0.395,0.016,0.594,0.016c24.96,0,45.314-20.041,45.85-44.875h0.025v-2H109.85z M81.924,63  c-0.061-7.246-0.775-14.025-2.013-20.014h22.593c3.271,5.969,5.183,12.779,5.346,20.014H81.924z M63.381,107.859  c-0.241-0.004-0.481-0.012-0.723-0.019c-5.696-0.458-10.784-8.761-13.702-20.827H77.35C74.387,99.268,69.186,107.645,63.381,107.859  z M48.499,85.014C47.21,79.01,46.448,72.186,46.383,65h33.541c-0.064,7.186-0.827,14.01-2.116,20.014H48.499z M46.383,63  c0.065-7.186,0.827-14.009,2.116-20.014h29.309c1.289,6.005,2.052,12.829,2.116,20.014H46.383z M62.658,20.159  c0.241-0.007,0.481-0.015,0.723-0.019c5.805,0.215,11.006,8.591,13.969,20.845H48.957C51.874,28.92,56.962,20.617,62.658,20.159z   M101.334,40.986H79.473c-2.252-9.667-5.902-17.023-10.326-20.549C82.74,22.033,94.451,29.861,101.334,40.986z M56.805,20.725  c-4.265,3.63-7.779,10.854-9.971,20.261H26.666C33.201,30.424,44.087,22.833,56.805,20.725z M25.496,42.986h20.899  C45.159,48.975,44.443,55.754,44.383,63H20.15C20.313,55.765,22.225,48.955,25.496,42.986z M44.383,65  c0.061,7.246,0.776,14.025,2.013,20.014H25.496C22.225,79.045,20.313,72.234,20.15,65H44.383z M26.666,87.014h20.168  c2.191,9.407,5.706,16.631,9.971,20.262C44.087,105.168,33.201,97.576,26.666,87.014z M69.146,107.563  c4.424-3.525,8.074-10.882,10.326-20.549h21.861C94.451,98.139,82.74,105.967,69.146,107.563z M102.504,85.014H79.911  c1.237-5.988,1.952-12.768,2.013-20.014h25.926C107.687,72.234,105.775,79.045,102.504,85.014z" fill="#2BACE2"/></svg>