<?xml version="1.0" ?><svg style="enable-background:new 0 0 32 32;" version="1.1" viewBox="0 0 32 32" xml:space="preserve" xmlns="http://www.w3.org/2000/svg" xmlns:xlink="http://www.w3.org/1999/xlink"><style type="text/css">
	.st0{fill:#0D2636;}
	.st1{fill:none;stroke:#0D2636;stroke-width:1.8761;stroke-linejoin:round;stroke-miterlimit:10;}
	.st2{fill:#171715;}
	.st3{fill-rule:evenodd;clip-rule:evenodd;fill:#0D2636;}
</style><g id="Layer_1"/><g id="icons"><path class="st0" d="M16,2c-3.9,0-7.4,1.6-9.9,4.1C3.6,8.6,2,12.1,2,16c0,3.9,1.6,7.4,4.1,9.9c2.5,2.5,6,4.1,9.9,4.1   c3.9,0,7.4-1.6,9.9-4.1c2.5-2.5,4.1-6,4.1-9.9C30,8.3,23.7,2,16,2z M11.4,23.5c0,0.4-0.3,0.7-0.7,0.7h-2c-0.4,0-0.7-0.3-0.7-0.7   v-9.6c0-0.4,0.3-0.7,0.7-0.7h2c0.4,0,0.7,0.3,0.7,0.7V23.5z M9.7,11.7c-1,0-2-0.9-2-2c0-1.3,1.3-2.3,2.7-1.8c0.6,0.2,1,0.7,1.2,1.3   C12,10.6,10.9,11.8,9.7,11.7z M24.2,23.5c0,0.4-0.3,0.7-0.7,0.7h-2c-0.4,0-0.7-0.3-0.7-0.7v-5.6c0-0.5-0.2-1-0.6-1.4   c-0.4-0.4-0.9-0.6-1.5-0.6c-1,0.1-1.8,1-1.8,2v5.5c0,0.4-0.3,0.7-0.7,0.7h-2c-0.4,0-0.7-0.3-0.7-0.7v-9.6c0-0.4,0.3-0.7,0.7-0.7   h1.9c0.4,0,0.7,0.3,0.7,0.7v0.7c0,0,0,0,0,0c0.1-0.1,0.1-0.2,0.2-0.3c0.6-0.9,1.6-1.4,2.7-1.4h0.6c2.1,0,3.8,1.7,3.8,3.8V23.5z" id="linkedin"/></g></svg>