<svg height="512" viewBox="0 0 60 60" width="512" xmlns="http://www.w3.org/2000/svg"><g id="Page-1" fill="none" fill-rule="evenodd"><g id="038---Internet-Cursor"><path id="Path" d="m30.06 31.53 4.69 14.75v.01l.89 2.78c-11.0138708 4.5994595-23.7428692.7682925-30.38832037-9.1462603-6.64545121-9.9145528-5.35206992-23.1445341 3.08772803-31.58433204 8.43979794-8.43979795 21.66977924-9.73317924 31.58433204-3.08772803 9.9145528 6.64545117 13.7457198 19.37444957 9.1462603 30.38832037l-17.54-5.58c-.4171811-.1352393-.8749631-.0251722-1.1850676.2849324-.3101046.3101045-.4201717.7678865-.2849324 1.1850676z" fill="#e8edfc"/><path id="Path" d="m26 1c-.5 0-1 .019-1.5.049 7.9224906.4747073 15.1485856 4.68408576 19.4695135 11.3414716 4.320928 6.6573859 5.2230012 14.9713248 2.4304865 22.4005284l2.668.849c3.2213032-7.7170682 2.3720512-16.5335535-2.2630557-23.4938494-4.635107-6.96029586-12.4425328-11.14308737-20.8049443-11.1461506z" fill="#cad9fc"/><path id="Path" d="m34.75 46.28-4.69-14.75c-.1085932-.3158961-.0719887-.6636389.1-.95l-1.634-.52c-.4171811-.1352393-.8749631-.0251722-1.1850676.2849324-.3101046.3101045-.4201717.7678865-.2849324 1.1850676l4.69 14.75v.01l.89 2.78c-2.5915301 1.082184-5.3473573 1.7184822-8.151 1.882.5.03 1 .048 1.511.048 3.3095552.0026043 6.5865366-.6534718 9.64-1.93l-.89-2.78z" fill="#cad9fc"/><path id="Path" d="m58.2 40.85-12.17 4.46c-.3409181.1208761-.6091239.3890819-.73.73l-4.45 12.16c-.1819636.4905203-.6547314.8118884-1.1777934.8006155-.5230621-.0112728-.9815452-.352711-1.1422066-.8506155l-2.89-9.08-.89-2.78v-.01l-4.69-14.75c-.1352393-.4171811-.0251722-.8749631.2849324-1.1850676.3101045-.3101046.7678865-.4201717 1.1850676-.2849324l17.54 5.58 9.08 2.89c.4979045.1606614.8393427.6191445.8506155 1.1422066.0112729.523062-.3100952.9958298-.8006155 1.1777934z" fill="#c6d8fb"/><path id="Path" d="m58.15 38.53-9.08-2.89-17.54-5.58c-.5210261-.1722204-1.0913907.0449023-1.366.52l15.906 5.06 9.08 2.89c.4979045.1606614.8393427.6191445.8506155 1.1422066.0112729.523062-.3100952.9958298-.8006155 1.1777934l-12.17 4.46c-.3409181.1208761-.6091239.3890819-.73.73l-4.078 11.143.308.967c.1606614.4979045.6191445.8393427 1.1422066.8506155.523062.0112729.9958298-.3100952 1.1777934-.8006155l4.45-12.16c.1208761-.3409181.3890819-.6091239.73-.73l12.17-4.46c.4905203-.1819636.8118884-.6547314.8006155-1.1777934-.0112728-.5230621-.352711-.9815452-.8506155-1.1422066z" fill="#a4c3fd"/><path id="Path" d="m10.44 42.76c-6.43671916-7.1334733-8.21674717-17.3241924-4.57941724-26.2173148 3.63732992-8.89312245 12.04861164-14.91554671 21.63941724-15.4936852-.5-.03-1-.049-1.5-.049-13.4984243.01998205-24.54343407 10.7518246-24.9515622 24.2440924-.40812814 13.4922677 9.9680254 24.8720799 23.4405622 25.7079076.5.03 1 .048 1.511.048s1-.019 1.489-.048c-6.5374618-.3889452-12.6603581-3.3309809-17.049-8.192z" fill="#fff"/><path id="Path" d="m1.331 17.823 1.9.629c-.78312772 2.4408507-1.19802058 4.9848079-1.231 7.548h-2c.03217437-2.7768975.48083582-5.5332497 1.331-8.177z" fill="#fff"/><g fill="#428dff"><path id="Path" d="m1.364 23.013c-.55228475.0027614-1.00223858-.4427153-1.005-.995s.44271525-1.0022386.995-1.005h.01c.55228475 0 1 .4477153 1 1s-.44771525 1-1 1z"/><path id="Shape" d="m58.45 37.577-8.061-2.565c3.3312733-9.0098146 1.4147839-19.122739-4.982-26.289-.006-.011-.006-.023-.013-.034-.0364249-.04342206-.0765779-.08357506-.12-.12-4.9209999-5.45729967-11.9256428-8.57148384-19.274-8.569-.309 0-.615.018-.92.046-2.4024862.10125953-4.781988.51095059-7.08 1.219-2.5797522.84305947-5.0125444 2.08256559-7.211 3.674-1.4149777 1.01111663-2.71712925 2.17145302-3.884 3.461-.119178.07420646-.22139537.17267586-.3.289-.00869986.0192481-.01637722.03894219-.023.059-.537.609-1.054 1.234-1.529 1.891-1.61798769 2.1796673-2.87502715 4.6052841-3.723 7.184-.09322278.2552557-.07521598.5378959.04964594.7792576s.34515191.4193561.60735406.4907424c.51732991.140753 1.05635459-.1376634 1.241-.641.78226363-2.3798933 1.94279654-4.6182328 3.437-6.629.317-.438.655-.86 1-1.275 1.45821081.8627479 2.9959429 1.5833924 4.592 2.152-1.4130263 3.9502858-2.1700311 8.1051979-2.241 12.3h-9.016c-.55228475 0-1 .4477153-1 1 .00026869 8.5054056 4.16063846 16.4729218 11.1399534 21.3341034 6.979315 4.8611817 15.8950346 6.0013282 23.8730466 3.0528966l2.567 8.065c.2823996.9103711 1.1189183 1.5353378 2.072 1.548h.048c.9349266.0060231 1.7715376-.5795243 2.086-1.46l4.448-12.161c.0236648-.061634.072366-.1103352.134-.134l12.17-4.461c.8927849-.3276873 1.4785982-1.1865749 1.4578158-2.1373703-.0207825-.9507954-.6435653-1.7832656-1.5498158-2.0716297zm-16.914-5.383c.2563917-1.7203361.4043503-3.4550925.443-5.194h8c-.1028282 2.5307961-.609206 5.0289267-1.5 7.4zm-12.429-.358 1.729 5.43c-1.259-.141-2.543-.219-3.836-.248v-10.018h12.979c-.0353291 1.5326125-.1598732 3.0618675-.373 4.58l-7.76-2.469c-.7747624-.2540366-1.6265423-.051904-2.2045553.5231545-.578013.5750586-.7845078 1.4257915-.5344447 2.2018455zm-21.445 9.62c-3.42575927-4.0610896-5.40169518-9.147295-5.616-14.456h7.976c.0685014 4.1932191.8182822 8.3474102 2.22 12.3-1.5923108.5700407-3.12605085 1.2920371-4.58 2.156zm6.477-2.789c-1.3351343-3.7480785-2.0501828-7.6887829-2.117-11.667h12.978v10.019c-3.677648.0622706-7.3304147.6165252-10.861 1.648zm10.861.351v10.909c-3.963-.487-7.668-3.931-10.113-9.4 3.2909412-.9410745 6.6906853-1.4483635 10.113-1.509zm0-36.95v10.914c-3.4287683-.0609406-6.8347667-.5709494-10.131-1.517 2.371-5.321 6.006-8.895 10.131-9.397zm12.131 9.4c-3.296532.9442826-6.7024282 1.4532676-10.131 1.514v-10.914c4.125.502 7.761 4.076 10.131 9.398zm12.844 13.532h-7.991c-.0709689-4.1948021-.8279737-8.3497142-2.241-12.3 1.5991657-.5709568 3.1396132-1.2946323 4.6-2.161 3.4346334 4.0590687 5.4166341 9.1481512 5.632 14.461zm-22.975-10.019c3.6846582-.0621129 7.344318-.6184108 10.881-1.654 1.3251419 3.7523671 2.035621 7.6941077 2.104 11.673h-12.985zm15.964-5.942c-1.2687255.71888486-2.5981728 1.3248826-3.973 1.811-1.1938585-2.84419762-2.9609279-5.41191183-5.191-7.543 3.4502052 1.19019895 6.5840927 3.15041759 9.164 5.732zm-33.928 0c.90249846-.91011633 1.8825333-1.7399171 2.929-2.48 1.9061197-1.36986791 3.9996146-2.4580407 6.216-3.231-2.2202297 2.12728238-3.9805067 4.68737588-5.172 7.522-1.3746711-.4865039-2.7040851-1.09248654-3.973-1.811zm5.083 4.288c3.5367316 1.0353651 7.196361 1.5916583 10.881 1.654v10.019h-12.985c.068379-3.9788923.7788581-7.9206329 2.104-11.673zm-5.1 29.642c1.2650841-.7175715 2.5904596-1.3232089 3.961-1.81 1.1773332 2.8287037 2.9285459 5.3824847 5.143 7.5-3.4232549-1.1875116-6.5342535-3.1325267-9.101-5.69zm17.981 7.007v-10.94c1.5082349.0320054 3.0135399.1475156 4.509.346l2.313 7.265c0 .014.008.028.013.042l.57 1.788c-2.3730573.889771-4.8727206 1.3957798-7.405 1.499zm30.853-10.068-12.17 4.461c-.6144391.2253486-1.0986514.7095609-1.324 1.324l-4.449 12.161c-.0256688.092915-.1139626.1543002-.21.146-.0983478.0069089-.1870596-.0588822-.209-.155l-8.481-26.626c-.0225293-.058959-.0057407-.1257137.042-.167.0285921-.0320002.0691036-.0508091.112-.052.022292.0002013.0443453.004612.065.013l26.614 8.469c.09611.0230066.1621256.1113077.157.21.0112988.09848-.0512426.1903776-.147.216z" fill-rule="nonzero"/></g></g></g></svg>